<svg xmlns="http://www.w3.org/2000/svg" width="119" height="56" fill="none"><path fill="#85171A" d="M13.688 44h-7.57l.046-6.328h7.524c1.562 0 2.882-.375 3.96-1.125 1.094-.75 1.922-1.867 2.485-3.352.578-1.5.867-3.343.867-5.53v-1.477c0-1.641-.164-3.079-.492-4.313-.313-1.25-.781-2.29-1.406-3.117a5.88 5.88 0 0 0-2.344-1.899c-.922-.422-1.985-.632-3.188-.632H5.977V9.875h7.593c2.313 0 4.43.398 6.352 1.195a14.215 14.215 0 0 1 5.015 3.375c1.422 1.453 2.516 3.18 3.282 5.18.781 1.984 1.172 4.188 1.172 6.61v1.43c0 2.405-.391 4.608-1.172 6.608-.766 2-1.852 3.727-3.258 5.18a14.696 14.696 0 0 1-4.992 3.375c-1.907.781-4 1.172-6.282 1.172Zm-2.86-34.125V44H2.602V9.875h8.226Z"/><path fill="#DC2025" d="M48.858 34.93c0-.532-.078-1.008-.235-1.43-.156-.438-.445-.844-.867-1.219-.422-.375-1.031-.75-1.828-1.125-.781-.39-1.812-.797-3.094-1.218-1.5-.5-2.945-1.063-4.336-1.688a19.274 19.274 0 0 1-3.726-2.227c-1.094-.859-1.961-1.859-2.602-3-.64-1.156-.96-2.5-.96-4.03 0-1.47.328-2.79.984-3.962.656-1.187 1.57-2.195 2.742-3.023 1.187-.844 2.578-1.485 4.172-1.922 1.594-.453 3.336-.68 5.226-.68 2.5 0 4.703.438 6.61 1.313 1.922.86 3.422 2.086 4.5 3.68 1.093 1.578 1.64 3.445 1.64 5.601h-8.18c0-.86-.179-1.617-.538-2.273-.344-.657-.868-1.172-1.57-1.547-.704-.375-1.587-.563-2.65-.563-1.03 0-1.898.156-2.6.469-.704.312-1.235.734-1.594 1.266a2.926 2.926 0 0 0-.54 1.71c0 .516.141.985.422 1.407.297.406.711.789 1.243 1.148.546.36 1.203.703 1.968 1.031.782.329 1.657.649 2.625.961 1.813.578 3.422 1.227 4.828 1.946 1.422.703 2.618 1.508 3.586 2.414.985.89 1.727 1.906 2.227 3.047.516 1.14.773 2.43.773 3.867 0 1.531-.297 2.89-.89 4.078-.594 1.187-1.446 2.195-2.555 3.023-1.11.813-2.437 1.43-3.984 1.852-1.547.422-3.274.633-5.18.633-1.75 0-3.477-.219-5.18-.657a15.312 15.312 0 0 1-4.593-2.062 10.687 10.687 0 0 1-3.305-3.586c-.813-1.469-1.219-3.21-1.219-5.227h8.25c0 1 .133 1.844.399 2.532.265.687.656 1.242 1.171 1.664.516.406 1.149.703 1.899.89.75.172 1.61.258 2.578.258 1.047 0 1.89-.148 2.531-.445.64-.313 1.11-.719 1.407-1.219a3.323 3.323 0 0 0 .445-1.687Z"/><path fill="#FEBA08" d="M67.669 9.875V44h-8.203V9.875h8.203Z"/><path fill="#000" fill-opacity=".6" d="M71.723 18v-7.11h2.1c.628 0 1.184.14 1.67.42.488.28.865.678 1.132 1.192.267.514.4 1.103.4 1.768v.356c0 .674-.135 1.266-.405 1.777a2.81 2.81 0 0 1-1.147 1.182c-.495.277-1.063.415-1.704.415h-2.046Zm1.235-6.113v5.127h.806c.648 0 1.144-.202 1.489-.606.348-.407.526-.99.532-1.748v-.395c0-.772-.167-1.361-.503-1.768-.335-.407-.822-.61-1.46-.61h-.864Zm11.524 4.355 1.094-5.351H86.8L85.161 18h-1.182l-1.352-5.19L81.245 18h-1.187l-1.64-7.11h1.225l1.104 5.342 1.357-5.341h1.035l1.343 5.351ZM89.658 18h-1.23v-7.11h1.23V18Zm2.169 0v-7.11h2.1c.628 0 1.184.14 1.67.42.488.28.865.678 1.132 1.192.267.514.4 1.103.4 1.768v.356c0 .674-.134 1.266-.405 1.777a2.81 2.81 0 0 1-1.147 1.182c-.495.277-1.063.415-1.704.415h-2.046Zm1.235-6.113v5.127h.806c.648 0 1.144-.202 1.49-.606.347-.407.525-.99.531-1.748v-.395c0-.772-.167-1.361-.502-1.768-.336-.407-.822-.61-1.46-.61h-.865Zm9.82 4.458h-2.754L99.552 18h-1.284l2.686-7.11h1.108l2.69 7.11h-1.289l-.581-1.655Zm-2.407-.996h2.061l-1.031-2.95-1.03 2.95Zm9.454.82c0-.313-.111-.553-.332-.723-.218-.169-.614-.34-1.187-.512-.573-.173-1.028-.365-1.367-.577-.648-.406-.972-.937-.972-1.591 0-.573.233-1.045.699-1.416.468-.371 1.075-.557 1.821-.557.495 0 .936.091 1.323.273.387.183.692.443.913.782.222.335.332.708.332 1.118h-1.23c0-.371-.117-.661-.352-.87-.231-.21-.563-.317-.996-.317-.404 0-.718.087-.942.26-.222.172-.332.412-.332.722 0 .26.12.478.361.654.241.173.638.342 1.191.508.554.163.998.35 1.333.561.336.209.581.45.738.723.156.27.234.588.234.952 0 .593-.228 1.065-.684 1.416-.452.349-1.067.523-1.845.523-.515 0-.988-.095-1.421-.284-.43-.192-.765-.455-1.006-.79a1.971 1.971 0 0 1-.356-1.172h1.235c0 .403.133.716.4.937.267.221.65.332 1.148.332.429 0 .752-.086.967-.259a.847.847 0 0 0 .327-.693Zm6.949.176h-2.754L113.547 18h-1.284l2.686-7.11h1.108l2.691 7.11h-1.289l-.581-1.655Zm-2.408-.996h2.061l-1.03-2.95-1.031 2.95Z"/><path fill="#263238" fill-opacity=".8" d="M75.439 28.169c0-.313-.111-.553-.333-.723-.218-.169-.613-.34-1.186-.512-.573-.173-1.029-.365-1.367-.577-.648-.406-.972-.937-.972-1.591 0-.573.233-1.045.698-1.416.469-.372 1.076-.557 1.822-.557.494 0 .936.091 1.323.273.387.183.692.443.913.782.221.335.332.708.332 1.118h-1.23c0-.371-.118-.661-.352-.87-.231-.21-.563-.317-.996-.317-.404 0-.718.087-.943.26-.22.172-.332.412-.332.722 0 .26.12.478.362.654.24.173.638.342 1.191.508.553.163.998.35 1.333.561.335.209.581.45.737.723.157.27.235.588.235.952 0 .593-.228 1.065-.684 1.416-.452.349-1.067.523-1.846.523a3.51 3.51 0 0 1-1.42-.284c-.43-.192-.765-.455-1.006-.79a1.974 1.974 0 0 1-.357-1.172h1.236c0 .403.133.716.4.937.267.221.65.332 1.147.332.43 0 .752-.086.967-.259a.847.847 0 0 0 .328-.693Zm6.448.176h-2.754L78.557 30h-1.284l2.686-7.11h1.108l2.69 7.11h-1.289l-.58-1.655Zm-2.407-.996h2.06l-1.03-2.95-1.03 2.95Zm6.84-4.458 2.05 5.449 2.046-5.45h1.597V30h-1.23v-2.344l.121-3.134-2.1 5.478h-.883l-2.095-5.474.122 3.13V30h-1.23v-7.11h1.602Zm11.024 5.278c0-.313-.111-.553-.332-.723-.219-.169-.614-.34-1.187-.512-.573-.173-1.029-.365-1.367-.577-.648-.406-.972-.937-.972-1.591 0-.573.233-1.045.698-1.416.47-.372 1.076-.557 1.822-.557.495 0 .936.091 1.323.273.387.183.692.443.913.782.221.335.332.708.332 1.118h-1.23c0-.371-.118-.661-.352-.87-.231-.21-.563-.317-.996-.317-.404 0-.718.087-.942.26-.222.172-.332.412-.332.722 0 .26.12.478.36.654.242.173.639.342 1.192.508.554.163.998.35 1.333.561.335.209.581.45.737.723.157.27.235.588.235.952 0 .593-.228 1.065-.684 1.416-.452.349-1.067.523-1.845.523-.515 0-.988-.095-1.421-.284-.43-.192-.765-.455-1.006-.79a1.974 1.974 0 0 1-.357-1.172h1.236c0 .403.133.716.4.937.267.221.65.332 1.148.332.43 0 .752-.086.966-.259a.847.847 0 0 0 .328-.693Zm6.448.176h-2.754L100.462 30h-1.284l2.686-7.11h1.108l2.691 7.11h-1.29l-.581-1.655Zm-2.407-.996h2.061l-1.031-2.95-1.03 2.95Zm7.85-.088h-1.377V30h-1.235v-7.11h2.5c.82 0 1.453.184 1.899.552.446.368.669.9.669 1.597 0 .475-.115.874-.346 1.196a2.183 2.183 0 0 1-.957.738l1.596 2.963V30h-1.323l-1.426-2.74Zm-1.377-.991h1.27c.417 0 .742-.105.976-.313.235-.212.352-.5.352-.864 0-.381-.109-.676-.327-.884-.215-.208-.537-.316-.967-.322h-1.304v2.383Zm9.135 2.075h-2.754L113.663 30h-1.284l2.685-7.11h1.108l2.691 7.11h-1.289l-.581-1.655Zm-2.407-.996h2.06l-1.03-2.95-1.03 2.95Z"/><path fill="#263238" d="M73.031 35.89V43h-1.225v-7.11h1.225Zm6.663 0V43H78.47l-3.189-5.093V43h-1.225v-7.11h1.225l3.198 5.103v-5.102h1.216ZM82.72 43H81.2l.01-.972h1.509c.44 0 .807-.096 1.103-.288.3-.192.524-.467.674-.825.153-.358.23-.785.23-1.28v-.385c0-.384-.044-.724-.132-1.02a2.001 2.001 0 0 0-.381-.748 1.595 1.595 0 0 0-.615-.459 2.089 2.089 0 0 0-.835-.156h-1.592v-.976h1.592c.472 0 .903.08 1.294.239.39.156.727.382 1.01.679a3 3 0 0 1 .66 1.064c.153.413.229.876.229 1.387v.376c0 .51-.076.973-.23 1.386a3.015 3.015 0 0 1-.659 1.065c-.286.293-.628.52-1.025.679A3.56 3.56 0 0 1 82.72 43Zm-.84-7.11V43h-1.226v-7.11h1.226Zm10.476 3.36v.39c0 .538-.07 1.02-.21 1.446-.14.426-.34.79-.6 1.089-.257.3-.567.529-.928.688a2.997 2.997 0 0 1-1.201.235c-.436 0-.835-.078-1.196-.235a2.687 2.687 0 0 1-.933-.688 3.195 3.195 0 0 1-.615-1.09 4.524 4.524 0 0 1-.215-1.444v-.391c0-.537.072-1.017.215-1.44a3.18 3.18 0 0 1 .605-1.09 2.61 2.61 0 0 1 .933-.688 2.92 2.92 0 0 1 1.196-.239c.44 0 .84.08 1.201.24.362.155.673.385.933.688.26.3.46.662.6 1.089.144.423.215.903.215 1.44Zm-1.225.39v-.4c0-.397-.04-.747-.117-1.05a2.157 2.157 0 0 0-.337-.766 1.409 1.409 0 0 0-.542-.469 1.605 1.605 0 0 0-.728-.161c-.27 0-.51.054-.722.161-.212.104-.393.26-.542.469-.147.205-.26.46-.337.766a4.22 4.22 0 0 0-.117 1.05v.4c0 .398.039.75.117 1.055.078.306.192.565.341.777.153.208.336.366.547.473.212.105.453.157.723.157.273 0 .516-.052.727-.157a1.46 1.46 0 0 0 .538-.473c.146-.212.257-.47.332-.777.078-.306.117-.657.117-1.054Zm7.59-3.75V43h-1.225l-3.188-5.093V43h-1.226v-7.11h1.226l3.198 5.103v-5.102h1.216Zm5.614 6.138V43h-3.774v-.972h3.774Zm-3.428-6.137V43h-1.225v-7.11h1.225Zm2.935 2.968v.957h-3.281v-.957h3.281Zm.469-2.968v.976h-3.75v-.976h3.75Zm4.265 5.278c0-.146-.023-.277-.068-.39a.767.767 0 0 0-.23-.313 1.89 1.89 0 0 0-.468-.274 6.264 6.264 0 0 0-.762-.278 8.477 8.477 0 0 1-.938-.347c-.283-.13-.53-.28-.742-.449a1.927 1.927 0 0 1-.493-.59 1.657 1.657 0 0 1-.176-.777c0-.29.06-.553.181-.791.124-.238.298-.443.522-.615.228-.176.497-.311.806-.405a3.39 3.39 0 0 1 1.025-.147c.528 0 .982.098 1.363.293.384.195.678.457.883.786.209.329.313.692.313 1.089h-1.216c0-.234-.05-.441-.151-.62a1.032 1.032 0 0 0-.449-.43c-.199-.104-.451-.156-.757-.156-.29 0-.531.044-.723.132a.968.968 0 0 0-.43.356.935.935 0 0 0-.141.508c0 .133.031.256.093.366a.998.998 0 0 0 .283.303c.127.091.286.177.478.259.192.081.419.16.679.234.394.117.737.248 1.03.39.293.14.537.3.733.48.195.178.341.382.439.61a1.9 1.9 0 0 1 .147.766c0 .3-.061.57-.181.81-.12.238-.293.442-.518.611a2.473 2.473 0 0 1-.8.386c-.31.088-.655.132-1.036.132-.341 0-.678-.046-1.01-.137a2.98 2.98 0 0 1-.899-.415 2.14 2.14 0 0 1-.644-.703 1.981 1.981 0 0 1-.24-.991h1.226c0 .23.039.428.117.59.082.163.194.297.337.4.143.102.309.177.498.225.192.05.397.074.615.074.287 0 .526-.041.718-.122a.947.947 0 0 0 .44-.342.9.9 0 0 0 .146-.508Zm3.123-5.278V43h-1.225v-7.11h1.225Zm3.88.947L113.455 43h-1.284l2.676-7.11h.82l-.088.948ZM117.356 43l-2.128-6.162-.093-.947h.825L118.646 43h-1.29Zm-.102-2.637v.972h-3.867v-.972h3.867Z"/></svg>